<?xml version="1.0" encoding="UTF-8" standalone="no"?>
<svg
   viewBox="0 0 24 24"
   focusable="false"
   version="1.1"
   id="svg11"
   sodipodi:docname="icon.svg"
   inkscape:version="1.3.2 (091e20e, 2023-11-25, custom)"
   xmlns:inkscape="http://www.inkscape.org/namespaces/inkscape"
   xmlns:sodipodi="http://sodipodi.sourceforge.net/DTD/sodipodi-0.dtd"
   xmlns="http://www.w3.org/2000/svg"
   xmlns:svg="http://www.w3.org/2000/svg">
  <sodipodi:namedview
     id="namedview11"
     pagecolor="#505050"
     bordercolor="#ffffff"
     borderopacity="1"
     inkscape:showpageshadow="0"
     inkscape:pageopacity="0"
     inkscape:pagecheckerboard="1"
     inkscape:deskcolor="#505050"
     inkscape:zoom="23.953242"
     inkscape:cx="9.6855364"
     inkscape:cy="14.883163"
     inkscape:window-width="1920"
     inkscape:window-height="1009"
     inkscape:window-x="-8"
     inkscape:window-y="-8"
     inkscape:window-maximized="1"
     inkscape:current-layer="svg11" />
  <defs
     id="defs2">
    <inkscape:path-effect
       effect="powerstroke"
       id="path-effect14"
       is_visible="true"
       lpeversion="1.3"
       scale_width="1"
       interpolator_type="CentripetalCatmullRom"
       interpolator_beta="0.75"
       start_linecap_type="round"
       end_linecap_type="round"
       offset_points="5.1843973,0.18786601"
       linejoin_type="spiro"
       miter_limit="4"
       not_jump="true"
       sort_points="true"
       message="&lt;b&gt;Ctrl + kattintás&lt;/b&gt; egy meglévő csomóponton és a mozgatása" />
    <inkscape:path-effect
       effect="simplify"
       id="path-effect13"
       is_visible="true"
       lpeversion="1.3"
       threshold="0.012"
       steps="1"
       smooth_angles="0"
       helper_size="0"
       simplify_individual_paths="false"
       simplify_just_coalesce="false"
       step="1" />
    <radialGradient
       cx="5.4%"
       cy="7.11%"
       r="107.93%"
       fx="5.4%"
       fy="7.11%"
       gradientTransform="matrix(.70653 0 0 1 .016 0)"
       id="radialGradient2">
      <stop
         offset="0%"
         stop-color="#FFF"
         id="stop1" />
      <stop
         offset="100%"
         stop-color="#FFF"
         stop-opacity="0"
         id="stop2" />
    </radialGradient>
  </defs>
  <g
     fill="none"
     fill-rule="evenodd"
     id="g11"
     transform="translate(-0.20874,-0.45922806)">
    <g
       fill-rule="nonzero"
       id="g10"
       style="display:inline">
      <path
         fill="#ff0000"
         d="m 22.74874,9.1567096 c 0,0 -0.2,-1.4106008 -0.86,-2.0406691 -0.83,-0.8181485 -1.75,-0.8275525 -2.18,-0.8745725 -3.04,-0.2068881 -7.6,-0.1880801 -7.6,-0.1880801 0,0 -4.56,-0.018808 -7.6,0.1880801 -0.43,0.04702 -1.35,0.056424 -2.18,0.8745725 -0.65,0.6300683 -0.86,2.0500731 -0.86,2.0500731 0,0 -0.22,1.6833174 -0.26,3.3572294 v 1.561065 c 0.04,1.673913 0.26,3.338422 0.26,3.338422 0,0 0.2,1.410601 0.86,2.050073 0.83,0.818149 1.9,0.789937 2.4,0.883977 1.7,0.14106 7.2,0.18808 7.38,0.18808 0,0 4.57,0 7.6,-0.206888 0.43,-0.04702 1.35,-0.05642 2.18,-0.874573 0.65,-0.630068 0.86,-2.050073 0.86,-2.050073 0,0 0.22,-1.664509 0.24,-3.338422 v -1.561065 c -0.02,-1.673912 -0.24,-3.3384214 -0.24,-3.3384214 z"
         id="path3"
         style="display:inline;fill:#d40000;stroke-width:0.969743" />
      <path
         fill="#fafafa"
         d="m 15.397764,12.994312 h -6.18 l 3.1,5.84"
         id="path4"
         style="display:inline" />
    </g>
    <circle
       style="display:inherit;fill:#1a1a1a;stroke:#000000;stroke-width:0.377953;stroke-linejoin:bevel;stroke-miterlimit:1"
       id="path11"
       cx="8.3078527"
       cy="11.397204"
       r="2.9641082" />
    <ellipse
       style="display:inherit;fill:#1a1a1a;stroke:#000000;stroke-width:0.374844;stroke-linejoin:bevel;stroke-miterlimit:1"
       id="path12"
       cx="16.1509"
       cy="11.370834"
       rx="3.0018332"
       ry="2.9920328" />
    <rect
       style="display:inherit;fill:#1a1a1a;stroke:#000000;stroke-width:0.377953;stroke-linejoin:bevel;stroke-miterlimit:1"
       id="rect12"
       width="1.8771067"
       height="0.026370049"
       x="11.270187"
       y="10.285386" />
    <rect
       style="display:inherit;fill:#1a1a1a;stroke:#000000;stroke-width:0.377953;stroke-linejoin:bevel;stroke-miterlimit:1"
       id="rect13"
       width="3.9621391"
       height="0.72299355"
       x="14.009998"
       y="16.080837"
       transform="rotate(-20.682153)" />
    <rect
       style="display:inherit;fill:#1a1a1a;stroke:#000000;stroke-width:0.377953;stroke-linejoin:bevel;stroke-miterlimit:1"
       id="rect13-5"
       width="3.9621391"
       height="0.72299355"
       x="4.791759"
       y="7.4213476"
       transform="rotate(21.689715)" />
    <path
       style="display:inherit;fill:none;stroke:#000000;stroke-width:0.377953;stroke-linejoin:bevel;stroke-miterlimit:1"
       d="m 5.0796534,7.8093839 1.4975425,-1.4313578 3.6850801,0.050733 1.398193,1.6400834"
       id="path14" />
    <path
       style="display:inherit;fill:none;stroke:#000000;stroke-width:0.377953;stroke-linejoin:bevel;stroke-miterlimit:1"
       d="m 12.858385,8.3078524 5.63598,-0.876708"
       id="path15" />
    <rect
       style="display:inherit;fill:#552200;stroke:#3f1e00;stroke-width:0.377953;stroke-linejoin:bevel;stroke-miterlimit:1;stroke-opacity:1"
       id="rect15"
       width="8.6000881"
       height="3.7155721"
       x="8.1408606"
       y="2.337888" />
    <rect
       style="display:inherit;fill:#552200;stroke:#3f1e00;stroke-width:0.377953;stroke-linejoin:bevel;stroke-miterlimit:1;stroke-opacity:1"
       id="rect16"
       width="22.209936"
       height="0.25048801"
       x="1.1271961"
       y="5.8447204" />
  </g>
</svg>
